<?xml version="1.0" encoding="UTF-8"?>
<svg version="1.1" xmlns="http://www.w3.org/2000/svg" width="3333" height="3333">
<path d="M0 0 C4.58400416 1.47938316 6.22247744 5.20067477 8.5 9.125 C16.70085041 22.72013277 26.49862606 35.11463847 37 47 C37.70310303 47.79784912 37.70310303 47.79784912 38.42041016 48.61181641 C50.10507057 61.78325595 62.90344464 73.45936827 77 84 C77.55623047 84.41846191 78.11246094 84.83692383 78.68554688 85.26806641 C115.06762396 112.46971855 157.28308734 130.28519164 202 138 C202.93924316 138.16516113 203.87848633 138.33032227 204.84619141 138.50048828 C279.69368325 150.99013877 365.4944362 134.87740405 427.8125 91.0625 C460.70645663 67.42792595 488.02091694 38.47023875 508.34375 3.37890625 C510 1 510 1 513 0 C513.64324219 1.10214844 514.28648438 2.20429687 514.94921875 3.33984375 C524.46834268 19.41408511 535.64787324 34.00616251 548 48 C548.47260254 48.5357666 548.94520508 49.0715332 549.43212891 49.62353516 C561.11990029 62.77861941 573.82392258 74.03894754 587.97021484 84.49658203 C589.80922525 85.85869727 591.63412806 87.23755969 593.45703125 88.62109375 C651.67234125 132.18773496 729.33618073 148.03427474 800.55859375 138.50048828 C869.31256639 128.50150673 936.20596035 93.68088114 979 38 C979.78375 37.02160156 980.5675 36.04320312 981.375 35.03515625 C989.8769672 24.34921281 997.31787842 12.9035003 1004 1 C1008.27593881 2.42531294 1009.4435374 5.60843974 1011.625 9.3125 C1016.02832515 16.56688737 1020.73294678 23.33461407 1026 30 C1026.71800781 30.91136719 1027.43601562 31.82273437 1028.17578125 32.76171875 C1040.03430435 47.52694911 1053.10717367 61.28007941 1068 73 C1069.09328646 73.88307744 1070.1857003 74.76723606 1071.27734375 75.65234375 C1079.52403809 82.29518852 1088.06021568 88.3270824 1097 94 C1097.57766113 94.36802734 1098.15532227 94.73605469 1098.75048828 95.11523438 C1118.10793396 107.34330043 1138.53702677 117.0817932 1160 125 C1160.89928223 125.33370605 1161.79856445 125.66741211 1162.72509766 126.01123047 C1198.66480525 139.15793377 1238.16567175 145.84320661 1276 138 C1278.33203295 137.65768744 1280.6652261 137.32308882 1283 137 C1290.00390054 222.11653405 1293.21946312 307.4589754 1295.625 392.8125 C1295.67230696 394.48239046 1295.67230696 394.48239046 1295.72056961 396.18601608 C1297.15532242 446.88887134 1298.09246477 497.59167695 1298.5625 548.3125 C1298.58355231 550.54691574 1298.60460952 552.78133142 1298.62567139 555.01574707 C1298.96527951 591.34478485 1299.23154957 627.66935872 1299 664 C1298.99468262 664.84223618 1298.98936523 665.68447235 1298.98388672 666.55223083 C1298.40073914 757.73620632 1296.67968068 848.8869392 1234 1409 C1233.81177673 1409.65987915 1233.62355347 1410.3197583 1233.42962646 1410.99963379 C1223.05700271 1447.28293852 1209.00057018 1496.15355415 1179 1522 C1176.98379517 1522.71780396 1176.98379517 1522.71780396 1174.63525391 1523.20751953 C1173.74330322 1523.39881943 1172.85135254 1523.59011932 1171.93237305 1523.78721619 C1170.95695557 1523.98376297 1169.98153809 1524.18030975 1168.9765625 1524.3828125 C1167.43585083 1524.70597191 1167.43585083 1524.70597191 1165.86401367 1525.03565979 C1162.45363278 1525.7455786 1159.03977154 1526.43652991 1155.625 1527.125 C1153.85464386 1527.48665756 1153.85464386 1527.48665756 1152.04852295 1527.85562134 C1060.22930767 1546.59107283 966.89900086 1557.26898185 453 1588 C451.86600769 1588.0279364 450.73201538 1588.0558728 449.56365967 1588.08465576 C435.23791337 1588.43529445 420.91172842 1588.71169198 406.58355713 1588.94140625 C403.4516685 1588.99261489 400.31983421 1589.04632715 397.18800831 1589.10122013 C316.25589783 1590.51627574 235.24711117 1590.61587192 109.47234344 1589.04638672 C106.91892972 1588.99847894 104.36550246 1588.95134486 101.81207275 1588.90429688 C4.56229638 1587.10354469 -92.61405275 1583.64016508 -645.29891968 1526.54302979 C-647.96616604 1526.00680204 -650.63737082 1525.4954372 -653.30981445 1524.98583984 C-654.93853138 1524.65961303 -656.56704352 1524.33236155 -658.1953125 1524.00390625 C-658.9248262 1523.8709465 -659.6543399 1523.73798676 -660.40596008 1523.60099792 C-665.17472238 1522.604834 -667.57392849 1521.07627715 -670.5625 1517.25 C-671.76255328 1515.19742018 -672.90479784 1513.11038955 -674 1511 C-674.70905048 1509.79267981 -675.42555177 1508.5897125 -676.1484375 1507.390625 C-726.16079843 1423.30237312 -736.55310065 1311.4366108 -779 734 C-779.0279364 732.88602844 -779.0558728 731.77205688 -779.08465576 730.62432861 C-780.69271644 666.17629098 -781.17284653 601.71851538 -781.12856883 537.25296789 C-781.12479578 531.12274124 -781.12616737 524.99253076 -781.13037109 518.86230469 C-781.16235391 470.89996364 -780.85336308 422.95510464 -780 375 C-779.97084126 373.3589114 -779.97084126 373.3589114 -779.94109344 371.68466949 C-779.71437941 359.08027055 -779.4398784 346.47748463 -779.125 333.875 C-779.0832159 332.17644285 -779.04144795 330.4778853 -778.99969482 328.77932739 C-777.61196836 272.72431103 -775.45743364 216.72855831 -771.8671875 160.76953125 C-771.79437561 159.63055389 -771.72156372 158.49157654 -771.64654541 157.31808472 C-771.20083315 150.53445124 -770.65088097 143.76704135 -770 137 C-766.41289021 137.47797194 -762.90910814 138.01884224 -759.36328125 138.75390625 C-700.30029727 150.90155983 -632.35105569 125.85697918 -583.36621094 93.8918457 C-573.967401 87.62032704 -564.74026032 81.16629802 -556 74 C-555.21955322 73.36167236 -555.21955322 73.36167236 -554.42333984 72.71044922 C-538.75571626 59.86493969 -538.75571626 59.86493969 -524.84375 45.2109375 C-523.39902919 43.47849686 -521.9105287 41.78254864 -520.40625 40.1015625 C-510.07803211 28.50618511 -500.8733389 15.83749883 -493.05834961 2.41162109 C-492.53446655 1.71286865 -492.53446655 1.71286865 -492 1 C-491.34 1 -490.68 1 -490 1 C-488.50532438 3.41186294 -487.11823295 5.82976235 -485.75 8.3125 C-476.92256053 23.78924354 -465.91123258 37.78722146 -454 51 C-453.45424316 51.6074707 -452.90848633 52.21494141 -452.34619141 52.84082031 C-446.21528814 59.63495185 -440.06842106 66.16822719 -433 72 C-432.08347656 72.804375 -431.16695312 73.60875 -430.22265625 74.4375 C-375.08232571 122.68638102 -300.9237073 144.95892056 -228.32763672 140.7890625 C-156.93284269 135.73795018 -84.20111277 104.31268529 -36.25 49.9375 C-35.16349358 48.62762551 -34.08048944 47.31484217 -33 46 C-32.20851563 45.09636719 -31.41703125 44.19273438 -30.6015625 43.26171875 C-18.90567841 29.87452857 -8.80763867 15.43043673 0 0 Z M-383 300 C-384.2652029 301.08990371 -385.53578407 302.1736056 -386.8125 303.25 C-390.72263797 306.65117373 -394.39163588 310.28254794 -398.0625 313.9375 C-398.64040283 314.51081055 -399.21830566 315.08412109 -399.8137207 315.67480469 C-429.52210617 345.4885241 -452.18110904 382.12340727 -472 419 C-472.50724609 419.94069336 -473.01449219 420.88138672 -473.53710938 421.85058594 C-514.81721182 498.81307084 -542.11788166 583.18902141 -616.42773438 848.24951172 C-623.03946008 873.13480795 -629.66205712 898.01679603 -636.375 922.875 C-636.70510071 924.09872314 -637.03520142 925.32244629 -637.37530518 926.58325195 C-640.8877857 939.59987335 -644.43736765 952.60543079 -648.0390625 965.59765625 C-661.74161638 1015.08884654 -673.64894092 1064.83809846 -679 1116 C-679.1546875 1117.35424072 -679.1546875 1117.35424072 -679.3125 1118.73583984 C-680.30347399 1128.52701683 -680.22201454 1138.37347003 -680.24023438 1148.20458984 C-680.24987151 1151.33328551 -680.28094341 1154.46130332 -680.3125 1157.58984375 C-680.49427462 1192.35728099 -674.351204 1230.48767488 -650 1257 C-649.33508545 1257.73645752 -649.33508545 1257.73645752 -648.65673828 1258.48779297 C-618.74083665 1291.31927151 -571.23374354 1297.63997904 -529.14868164 1299.79931641 C-517.67113955 1300.29998037 -506.17394977 1300.29427771 -494.6875 1300.3125 C-494.01360104 1300.31379787 -493.33970207 1300.31509575 -492.64538193 1300.31643295 C-470.5374001 1300.34863014 -448.84926269 1299.57067396 -427 1296 C-425.24091309 1295.71914551 -425.24091309 1295.71914551 -423.44628906 1295.43261719 C-362.84780648 1285.46768637 -302.89992388 1261.2804151 -256 1221 C-254.96742512 1220.14948615 -253.93349209 1219.30061936 -252.8984375 1218.453125 C-239.54707296 1207.4105111 -226.57420046 1195.19574669 -215.9375 1181.484375 C-214.61370069 1179.78692266 -213.23504136 1178.13122555 -211.8125 1176.515625 C-198.80609365 1161.71228093 -188.10326752 1144.44639378 -179 1127 C-178.67128906 1126.37818848 -178.34257813 1125.75637695 -178.00390625 1125.11572266 C-155.95568586 1083.19622193 -141.46958776 1034.9050615 -141.9375 987.25 C-141.94426758 985.90035156 -141.94426758 985.90035156 -141.95117188 984.5234375 C-141.96273841 982.34892818 -141.98066197 980.17445409 -142 978 C-140.33868042 978.44243042 -140.33868042 978.44243042 -138.64379883 978.89379883 C-133.70363633 980.12547505 -128.72909144 980.92929056 -123.69921875 981.69921875 C-122.69546707 981.85495361 -121.69171539 982.01068848 -120.657547 982.17114258 C-117.33513513 982.68297167 -114.01157182 983.18656838 -110.6875 983.6875 C-109.53008301 983.86229889 -108.37266602 984.03709778 -107.18017578 984.2171936 C-31.95977846 995.51191508 43.91991857 1002.06097365 119.875 1005.6875 C121.77581329 1005.77877167 121.77581329 1005.77877167 123.71502686 1005.87188721 C132.47525096 1006.28709552 141.23681515 1006.65353174 150 1007 C151.17374176 1007.0494577 152.34748352 1007.09891541 153.55679321 1007.14987183 C183.43342536 1008.378939 213.34346928 1008.18766728 243.23955321 1008.18511146 C248.40590015 1008.18541226 253.57219402 1008.19352261 258.73852539 1008.20581055 C312.37262987 1008.33041376 365.90177331 1007.15649839 419.453125 1003.90625 C420.60395569 1003.83692261 421.75478638 1003.76759521 422.94049072 1003.69616699 C494.5012445 999.31096175 565.92910088 992.4970376 636.8125 981.625 C637.64463013 981.49762451 638.47676025 981.37024902 639.33410645 981.23901367 C647.40677044 980.38793077 647.40677044 980.38793077 655 978 C654.96519531 979.11890625 654.93039062 980.2378125 654.89453125 981.390625 C653.56315386 1044.59070602 675.95894718 1110.06535697 713 1161 C713.7429834 1162.02697998 713.7429834 1162.02697998 714.50097656 1163.07470703 C719.9331682 1170.55043743 725.45095294 1177.83375405 731.76953125 1184.59375 C733.64245244 1186.61427443 735.4470652 1188.66833166 737.24609375 1190.75390625 C741.08238604 1195.15097014 745.1223512 1199.31454011 749.25 1203.4375 C749.99725342 1204.18394775 750.74450684 1204.93039551 751.5144043 1205.69946289 C756.22693992 1210.36013977 760.98939765 1214.74818441 766.22998047 1218.81225586 C769.04993014 1221.03943452 771.77320677 1223.35594888 774.50390625 1225.69140625 C780.73062298 1230.93232431 787.32443959 1235.53151753 794.125 1240 C794.71359802 1240.38907532 795.30219604 1240.77815063 795.90863037 1241.17901611 C805.67965827 1247.62877115 815.54869298 1253.70870821 826 1259 C826.92425781 1259.47099121 827.84851562 1259.94198242 828.80078125 1260.42724609 C863.62064519 1278.02347111 900.72830697 1289.67609755 939.25 1295.75 C940.50288818 1295.94867676 941.75577637 1296.14735352 943.04663086 1296.35205078 C947.02536214 1296.95159619 951.00806364 1297.4975955 955 1298 C955.74289276 1298.09462524 956.48578552 1298.18925049 957.25119019 1298.28674316 C972.19202985 1300.1205654 987.06888885 1300.30912688 1002.1081543 1300.26074219 C1006.03254889 1300.25008136 1009.95647911 1300.2606681 1013.88085938 1300.2734375 C1062.90032834 1300.30184513 1120.75406603 1298.27090952 1158 1262 C1158.70769531 1261.34257812 1159.41539063 1260.68515625 1160.14453125 1260.0078125 C1183.26845812 1237.98923586 1192.37597636 1202.01953557 1193.17700195 1171.0456543 C1193.20312921 1169.30525202 1193.2233065 1167.56475271 1193.23828125 1165.82421875 C1193.2480751 1164.87353516 1193.25786896 1163.92285156 1193.26795959 1162.94335938 C1193.46566201 1138.68267689 1192.56081188 1115.00552631 1189 1091 C1188.84017639 1089.91673431 1188.84017639 1089.91673431 1188.67712402 1088.81158447 C1181.95138429 1043.66364221 1170.66394415 999.4135096 1158.36981201 955.50845337 C1152.29064225 933.79348381 1146.39722616 912.03177186 1140.5625 890.25 C1140.09709807 888.51346535 1139.6316846 886.77693379 1139.16625977 885.04040527 C1133.98330686 865.69866757 1128.82382534 846.3507533 1123.6863308 826.99689293 C1103.57415627 751.23431972 1083.18720779 675.5854327 1059 601 C1058.72540955 600.1508905 1058.45081909 599.30178101 1058.16790771 598.42694092 C1030.5358693 513.00803164 997.26858304 425.79438075 935 342 C934.26523438 341.071875 933.53046875 340.14375 932.7734375 339.1875 C927.93200476 333.16564726 922.82321351 327.44874134 917.5703125 321.7890625 C915.41922571 319.4549045 913.32074342 317.09253383 911.25 314.6875 C905.64514052 308.24390858 899.49580878 302.53097363 893 297 C892.16082031 296.27167969 891.32164063 295.54335937 890.45703125 294.79296875 C847.91662528 258.47226351 795.00642686 236.86141097 738.80859375 236.83203125 C737.33577952 236.82880473 735.86296559 236.82543971 734.39015198 236.82194519 C731.30639915 236.81598387 728.22267419 236.81410172 725.13891602 236.81469727 C722.03143403 236.81477783 718.92410164 236.80794361 715.81665039 236.79418945 C691.96673037 236.69037495 668.31813502 237.14003458 644.75 241.25 C642.86607544 241.57315186 642.86607544 241.57315186 640.9440918 241.90283203 C630.03919013 243.8513546 619.50550385 246.50104341 609 250 C608.22221191 250.25475098 607.44442383 250.50950195 606.64306641 250.77197266 C572.6086647 262.08839349 542.787744 281.42503445 516 305 C515.09765625 305.79019531 514.1953125 306.58039063 513.265625 307.39453125 C511.89664062 308.62236328 511.89664062 308.62236328 510.5 309.875 C509.77151855 310.50184692 509.77151855 310.50184692 509.02832031 311.14135742 C505.49016757 314.29456712 502.68810561 317.67456445 499.84375 321.46875 C488.39494141 335.93752463 488.39494141 335.93752463 479.36279297 337.71630859 C471.12601421 337.94433416 463.07927173 336.59746125 454.97492981 335.237854 C445.30074713 333.63337937 435.58130538 332.93489549 425.80667114 332.23425293 C422.53290089 331.99786273 419.26050145 331.74694787 415.98803711 331.49316406 C398.50642979 330.15595912 381.01052395 329.17378827 363.5 328.3125 C362.28361847 328.2518335 361.06723694 328.19116699 359.81399536 328.12866211 C325.87948788 326.45599428 291.97247254 325.79213057 258 325.8125 C257.10806946 325.81261959 256.21613892 325.81273918 255.29718018 325.8128624 C221.82935613 325.81850428 188.43507094 326.41065684 155 328 C153.91847656 328.05091797 152.83695313 328.10183594 151.72265625 328.15429688 C121.18386557 329.6094021 90.72983681 331.97073365 60.27406311 334.6060791 C57.92828341 334.80817495 55.58228946 335.00780226 53.23606873 335.20471191 C48.59922647 335.59426478 43.96832341 335.98960908 39.34399414 336.50854492 C38.10125732 336.63592041 36.85852051 336.7632959 35.578125 336.89453125 C34.58586914 337.01159424 33.59361328 337.12865723 32.57128906 337.24926758 C28.19708592 336.82522073 25.87166806 334.03117553 23.16015625 330.78515625 C22.44730469 329.86605469 21.73445313 328.94695312 21 328 C16.29179958 322.35242305 11.25441646 317.19453808 5.875 312.1875 C5.13000244 311.49172852 4.38500488 310.79595703 3.61743164 310.07910156 C-69.00294263 242.66646986 -166.52691486 223.51603345 -383 300 Z " fill="#E573E9" transform="translate(1410,1223)"/>
<path d="M0 0 C1.23635807 0.01166199 1.23635807 0.01166199 2.49769306 0.02355957 C82.70408983 0.78240032 162.90511251 1.9080163 501.83277512 10.59277344 C504.70768424 10.68612595 507.58261617 10.7787516 510.45755005 10.87133789 C514.83720389 11.01290157 519.21672406 11.15805381 523.59615517 11.30634499 C525.15042289 11.35865271 526.7047216 11.41005024 528.25905418 11.46039391 C554.65593578 12.31954996 554.65593578 12.31954996 561.6875 17.25 C562.35120605 17.68965088 563.01491211 18.12930176 563.69873047 18.58227539 C571.03433449 23.5256107 578.03866306 28.93975584 584.98339844 34.41259766 C586.89042457 35.91374583 588.80650631 37.40229262 590.7265625 38.88671875 C598.09917586 44.60367805 605.27799129 50.51935292 612.35693359 56.59521484 C614.01870437 58.01599182 615.68983978 59.42502753 617.36328125 60.83203125 C625.07772323 67.34308176 632.49637175 74.11990861 639.8203125 81.06640625 C643.01881448 84.09753285 646.27038944 87.06494461 649.53344727 90.02636719 C655.73663581 95.69110058 661.71189385 101.56544402 667.64453125 107.51171875 C668.70905828 108.57556912 669.77373344 109.63927127 670.83854675 110.70283508 C673.04592398 112.90875489 675.2515259 115.11642949 677.45581055 117.32543945 C680.26055976 120.13591306 683.06981524 122.94183284 685.88040638 125.74646282 C688.07084591 127.93326736 690.25887195 130.12247432 692.44620323 132.31238747 C693.48074992 133.34759385 694.51601935 134.38207854 695.55207253 135.41577721 C700.71099255 140.56552901 705.79630263 145.73493923 710.51298523 151.29890442 C712.10192044 153.11659361 713.77655254 154.81000959 715.5 156.5 C718.47057406 159.42467115 721.20729119 162.48619561 723.92578125 165.64453125 C726.01435124 168.01629717 728.15532807 170.32888367 730.31201172 172.63842773 C735.33686148 178.0204013 740.11132227 183.50850099 744.72265625 189.25390625 C747.21827635 192.26320459 749.83787519 195.13916806 752.5 198 C756.75533276 202.57927575 760.77322923 207.29286299 764.6953125 212.1640625 C767.20794695 215.25588048 769.78658385 218.28427573 772.375 221.3125 C777.13021676 226.89658494 781.68190679 232.61994372 786.1875 238.40625 C788.57177773 241.46507128 790.99594601 244.48961537 793.43164062 247.50756836 C808.56215988 266.27108033 822.88323727 285.7752153 836 306 C836.46229004 306.70672852 836.92458008 307.41345703 837.40087891 308.14160156 C869.58220611 357.46123157 869.58220611 357.46123157 869.37231445 385.96875 C869.37596512 387.09905136 869.37961578 388.22935272 869.38337708 389.39390564 C869.39142009 393.09609453 869.37791719 396.79783679 869.36328125 400.5 C869.36276161 403.10294596 869.36328333 405.70589232 869.36479187 408.30883789 C869.3656713 413.75558671 869.35467702 419.20221027 869.33618164 424.64892578 C869.31510478 430.8904233 869.31148813 437.13173653 869.3177436 443.37326241 C869.32350217 449.43555487 869.31760199 455.497774 869.30657005 461.56005859 C869.30276115 464.11132554 869.30155161 466.66259791 869.3031559 469.21386719 C869.30515317 488.22019863 868.6499168 506.90391955 864.75 525.5625 C864.53384033 526.61203857 864.31768066 527.66157715 864.0949707 528.74291992 C855.53987157 568.84666271 835.98762626 605.52458529 810 637 C809.5776709 637.51401367 809.1553418 638.02802734 808.72021484 638.55761719 C797.64914926 651.96964869 785.69333491 664.24834975 772 675 C771.17886719 675.69996094 770.35773437 676.39992188 769.51171875 677.12109375 C749.39551199 694.24581604 725.57757368 707.5246602 701 717 C700.24686523 717.29100586 699.49373047 717.58201172 698.71777344 717.88183594 C681.07338087 724.54854234 661.6227624 729.08705217 642.71484375 729.203125 C641.9450116 729.21018463 641.17517944 729.21724426 640.38201904 729.22451782 C571.62493579 729.71103515 509.1746537 705.31362855 459.78369141 657.01782227 C453.04847504 650.33359461 446.79323888 643.52239954 441 636 C440.23945313 635.06800781 439.47890625 634.13601563 438.6953125 633.17578125 C410.46319426 597.9532823 395.68184941 556.14327828 389 512 C388.7133666 513.42965241 388.42695822 514.85934994 388.140625 516.2890625 C387.95693359 517.2059082 387.77324219 518.12275391 387.58398438 519.06738281 C387.20672914 520.96186019 386.83279468 522.85700325 386.46289062 524.75292969 C379.66493597 559.56483825 368.22502141 594.0961675 347 623 C346.35925537 623.88896973 346.35925537 623.88896973 345.70556641 624.79589844 C331.95893099 643.84146284 316.58814058 661.53675579 298 676 C297.0409375 676.77601563 296.081875 677.55203125 295.09375 678.3515625 C261.06184282 705.42239776 219.98195472 722.13181497 177 728 C175.91513306 728.1546875 175.91513306 728.1546875 174.80834961 728.3125 C151.69935293 731.13097722 125.77830446 730.61201617 103 726 C102.00726074 725.80132324 101.01452148 725.60264648 99.99169922 725.39794922 C63.00999016 717.74952449 28.30176027 701.9190307 -1 678 C-2.00675781 677.19691406 -3.01351563 676.39382813 -4.05078125 675.56640625 C-18.07279699 664.1993427 -31.07569067 651.26782632 -41.74658203 636.69335938 C-43.01921114 634.97404588 -44.33043746 633.29101316 -45.65234375 631.609375 C-71.96504906 597.65627479 -87.50232625 554.49294757 -92 512 C-92.11827148 512.59570801 -92.23654297 513.19141602 -92.35839844 513.80517578 C-102.75016068 565.97668388 -121.60041769 612.16922632 -159 651 C-159.63212402 651.65935547 -160.26424805 652.31871094 -160.91552734 652.99804688 C-169.54637138 661.95338942 -178.27601839 670.41229184 -188.3203125 677.76904297 C-189.9970759 678.99785707 -191.65487153 680.24944508 -193.3125 681.50390625 C-225.10809937 705.22443277 -263.84951142 721.1105515 -303 727 C-304.68802734 727.26598999 -304.68802734 727.26598999 -306.41015625 727.53735352 C-317.02492101 729.05538918 -327.51019069 729.34005762 -338.22460938 729.31567383 C-341.10065141 729.31252664 -343.97564747 729.33602754 -346.8515625 729.36132812 C-397.70110602 729.53487513 -448.05626098 711.8482569 -489 682 C-489.58120605 681.5771875 -490.16241211 681.154375 -490.76123047 680.71875 C-497.97859141 675.4231226 -504.69079553 669.72327269 -511.21484375 663.59765625 C-513.70292237 661.27707802 -516.23925981 659.03741665 -518.8125 656.8125 C-522.14698963 653.85314045 -525.13277664 650.77541064 -528.00390625 647.3671875 C-529.55026364 645.53334684 -531.11862069 643.73496732 -532.71484375 641.9453125 C-565.18050994 605.27664436 -584.7806032 558.36277213 -591 510 C-591.22042969 511.83884766 -591.22042969 511.83884766 -591.4453125 513.71484375 C-598.28252286 567.48114192 -620.37370287 616.820943 -658 656 C-658.61617187 656.6487207 -659.23234375 657.29744141 -659.8671875 657.96582031 C-669.85166251 668.43106528 -680.21975809 677.61367243 -692 686 C-692.58330078 686.42796875 -693.16660156 686.8559375 -693.76757812 687.296875 C-712.11284105 700.7316446 -733.44080499 710.93058954 -755 718 C-755.84691406 718.27779297 -756.69382812 718.55558594 -757.56640625 718.84179688 C-771.12889027 723.18874688 -784.90258001 726.02365093 -799 728 C-799.72469482 728.1038501 -800.44938965 728.2077002 -801.19604492 728.31469727 C-826.25623485 731.35785728 -853.3654671 730.19228031 -878 725 C-878.88655273 724.81808105 -879.77310547 724.63616211 -880.68652344 724.44873047 C-933.89101304 713.21131562 -984.59923055 682.12736715 -1018 639 C-1018.78632812 638.01902344 -1019.57265625 637.03804687 -1020.3828125 636.02734375 C-1048.18893061 601.0953932 -1064.23376174 560.0216226 -1070.61450195 516.08105469 C-1070.91012916 513.94905917 -1070.91012916 513.94905917 -1072 512 C-1072.09498779 512.62753174 -1072.18997559 513.25506348 -1072.2878418 513.90161133 C-1074.42715983 527.84082363 -1076.88853881 541.49823479 -1081 555 C-1081.23525391 555.77698242 -1081.47050781 556.55396484 -1081.71289062 557.35449219 C-1095.94047519 603.24689886 -1125.79517474 646.67182195 -1164 676 C-1164.65822754 676.51288574 -1165.31645508 677.02577148 -1165.99462891 677.55419922 C-1178.0450617 686.90157993 -1190.51568661 694.88181181 -1204 702 C-1205.23194092 702.65693848 -1205.23194092 702.65693848 -1206.48876953 703.32714844 C-1239.73609897 720.81459506 -1277.09896447 729.46889833 -1314.5625 729.375 C-1315.80033234 729.37418427 -1315.80033234 729.37418427 -1317.06317139 729.37335205 C-1338.30739181 729.3093403 -1357.89451595 725.86951828 -1378 719 C-1379.06637695 718.64035156 -1379.06637695 718.64035156 -1380.15429688 718.2734375 C-1390.55929433 714.71717546 -1400.29680481 710.14965183 -1410 705 C-1410.71945801 704.62359375 -1411.43891602 704.2471875 -1412.18017578 703.859375 C-1427.55011191 695.7823339 -1441.69194305 686.15957754 -1455 675 C-1455.7420166 674.39115967 -1455.7420166 674.39115967 -1456.49902344 673.77001953 C-1470.58931852 662.20101141 -1483.90229726 649.49735111 -1495 635 C-1495.98825473 633.76195912 -1496.97794972 632.52506713 -1497.96875 631.2890625 C-1506.58942298 620.4195183 -1514.01086468 608.97599056 -1521 597 C-1521.42265137 596.27876953 -1521.84530273 595.55753906 -1522.28076172 594.81445312 C-1541.41513543 561.70606876 -1552.04594596 522.85030924 -1552.19287109 484.64404297 C-1552.20104858 483.44908707 -1552.20922607 482.25413116 -1552.21765137 481.02296448 C-1552.2423203 477.09605205 -1552.25914755 473.16914746 -1552.2734375 469.2421875 C-1552.27880809 467.87862266 -1552.28418559 466.51505785 -1552.28956985 465.15149307 C-1552.31115475 459.47225549 -1552.32988492 453.79302043 -1552.34119225 448.11375237 C-1552.35739937 440.0332781 -1552.39054851 431.95328673 -1552.44759309 423.8729943 C-1552.48653669 418.15794058 -1552.50585331 412.44301471 -1552.51111281 406.72783196 C-1552.51473218 403.33017273 -1552.52638237 399.93303173 -1552.55921555 396.53551865 C-1552.67969124 382.18455833 -1552.71363771 369.35156583 -1547 356 C-1546.57511795 354.9640419 -1546.1502359 353.9280838 -1545.71247864 352.86073303 C-1544.57935716 350.17141319 -1543.34814516 347.55710467 -1542.0625 344.9375 C-1541.59505371 343.97489258 -1541.12760742 343.01228516 -1540.64599609 342.02050781 C-1531.73000109 324.06027205 -1520.56704436 307.34181267 -1509 291 C-1508.48115234 290.26507324 -1507.96230469 289.53014648 -1507.42773438 288.77294922 C-1498.58563777 276.28885578 -1489.34407853 264.11120908 -1480 252 C-1479.23042969 251.00226563 -1479.23042969 251.00226563 -1478.4453125 249.984375 C-1467.36788726 235.6632838 -1455.74846301 221.77291568 -1444 208 C-1443.50757813 207.42121094 -1443.01515625 206.84242188 -1442.5078125 206.24609375 C-1436.76116826 199.4930575 -1430.97011039 192.79469979 -1425.01171875 186.2265625 C-1423.15265331 184.16895609 -1421.32071642 182.09153237 -1419.5 180 C-1412.31556644 171.76097069 -1404.9371446 163.69303091 -1397.52734375 155.65673828 C-1396.48471955 154.52578434 -1395.44309597 153.39390732 -1394.40234375 152.26123047 C-1386.98169809 144.19369046 -1379.41759699 136.30799991 -1371.59301758 128.62988281 C-1368.42764767 125.50718383 -1365.39106624 122.34513455 -1362.49609375 118.96875 C-1359.07421206 115.0019429 -1355.36504645 111.46695859 -1351.5 107.9375 C-1345.87602726 102.74086478 -1340.38446351 97.44436652 -1335 92 C-1330.81140827 87.77289248 -1326.62560224 83.63350709 -1322.07421875 79.79296875 C-1319.78875889 77.81740175 -1317.58572847 75.76732731 -1315.37866211 73.70507812 C-1309.94164028 68.62518708 -1304.39789457 63.787013 -1298.58984375 59.12890625 C-1296.09828918 57.08079578 -1293.73727891 54.94496742 -1291.375 52.75 C-1284.9535786 46.90027907 -1277.98091113 41.77613497 -1271.04833984 36.55615234 C-1269.22025957 35.16733426 -1267.41198779 33.7585543 -1265.61328125 32.33203125 C-1259.62098592 27.60285464 -1253.49825248 23.19880009 -1247.125 19 C-1246.42310547 18.53062012 -1245.72121094 18.06124023 -1244.99804688 17.57763672 C-1244.32064453 17.1395166 -1243.64324219 16.70139648 -1242.9453125 16.25 C-1242.35250488 15.86328125 -1241.75969727 15.4765625 -1241.14892578 15.078125 C-1235.03958572 12.01304369 -1228.79988446 11.58764593 -1222.109375 11.25390625 C-1221.10712891 11.19835068 -1220.10488281 11.1427951 -1219.07226562 11.08555603 C-1215.6319918 10.90005455 -1212.1912037 10.72983787 -1208.75 10.5625 C-1207.50126099 10.50030273 -1206.25252197 10.43810547 -1204.96594238 10.37402344 C-1118.63916713 6.12612599 -1032.15240066 4.93441524 -763.14206696 1.04537201 C-759.22009278 1.00248406 -755.2981257 0.95897076 -751.37615967 0.91534424 C-720.89107776 0.57700933 -690.40582344 0.30438404 -659.91964722 0.08627987 C-653.06342092 0.03715923 -646.20720972 -0.01331343 -639.35101318 -0.06640625 C-552.0364303 -0.74213534 -464.72215172 -1.05846075 0 0 Z " fill="#E573E9" transform="translate(2008,521)"/>
<path d="M0 0 C5.80318362 4.01758866 10.65475186 8.52588612 15.57519531 13.54394531 C18.29799605 16.31478539 21.03409577 18.98516037 24 21.5 C28.04098198 24.93483468 31.73806641 28.6796741 35.4375 32.47460938 C38.12201307 35.20653912 40.8744038 37.78594135 43.78125 40.28125 C49.46982372 45.20197442 54.6610138 50.61544419 59.93359375 55.97265625 C60.72894531 56.77574219 61.52429687 57.57882812 62.34375 58.40625 C63.04693359 59.12103516 63.75011719 59.83582031 64.47460938 60.57226562 C66.44818918 62.46952757 68.44115701 64.24727293 70.51928711 66.02368164 C76.40194853 71.1360037 81.84547816 76.7014931 87.34765625 82.21484375 C88.53000077 83.396513 89.71249357 84.57803391 90.89512634 85.75941467 C93.36180534 88.22462723 95.82668703 90.69161886 98.2902832 93.15991211 C101.42921932 96.30454484 104.57262471 99.44466556 107.71740055 102.58345699 C110.15662006 105.01904232 112.59342741 107.45702989 115.02953911 109.89572334 C116.18689277 111.05373839 117.34497387 112.21102693 118.50383186 113.36753654 C124.03098362 118.88594057 129.5269672 124.39122663 134.57774353 130.3575592 C137.06173053 133.22610062 139.78780701 135.84954998 142.5 138.5 C146.49804772 142.45349337 150.36598312 146.43153994 154.00390625 150.72265625 C156.87595465 153.99937683 159.88484635 157.14375355 162.875 160.3125 C167.80034782 165.54754086 172.46720148 170.87122983 176.94921875 176.4921875 C178.92259851 178.90534903 180.99170763 181.16568215 183.125 183.4375 C187.64540816 188.39639573 191.66281112 193.69673886 195.6875 199.0625 C196.63230225 200.32114868 196.63230225 200.32114868 197.59619141 201.60522461 C200.6166376 205.66790381 203.58244434 209.76624333 206.45703125 213.93359375 C207.19336792 214.99984985 207.19336792 214.99984985 207.94458008 216.08764648 C209 218 209 218 209 221 C182.88592525 220.36163883 156.78891225 219.46831522 130.6875 218.4375 C118.580625 217.963125 106.47375 217.48875 94 217 C94 250.33 94 283.66 94 318 C87.42250422 319.46166573 82.11379958 320.28760184 75.55078125 320.23046875 C74.22642059 320.23032524 74.22642059 320.23032524 72.87530518 320.23017883 C70.02089518 320.22647785 67.16683804 320.20756544 64.3125 320.1875 C62.32869585 320.1806357 60.34489044 320.17412819 58.36108398 320.16796875 C44.70504332 320.10732078 31.07934481 319.75048147 17.43359375 319.2265625 C5.59446945 318.78283555 -6.21255253 318.78741903 -18.04664612 319.35722351 C-31.24685617 319.99047678 -44.42860863 320.18625415 -57.64282227 320.18530273 C-61.11941982 320.18753657 -64.59572179 320.20593002 -68.07226562 320.22460938 C-70.30989477 320.22753639 -72.54752539 320.2295258 -74.78515625 320.23046875 C-76.32418358 320.24124702 -76.32418358 320.24124702 -77.89430237 320.25224304 C-78.85738815 320.24916641 -79.82047394 320.24608978 -80.81274414 320.24291992 C-81.64858536 320.24434494 -82.48442657 320.24576996 -83.34559631 320.24723816 C-86 320 -86 320 -93 318 C-93 284.67 -93 251.34 -93 217 C-104.19550781 217.433125 -104.19550781 217.433125 -115.6171875 217.875 C-120.35676292 218.05750265 -125.09634217 218.23989201 -129.8359375 218.421875 C-137.35225664 218.7104847 -144.86855838 218.99950461 -152.38476562 219.29101562 C-158.44715221 219.52611485 -164.50960852 219.75933412 -170.57211685 219.99127197 C-172.88047978 220.07991133 -175.18881718 220.16921826 -177.49712753 220.25921631 C-180.74004387 220.38553717 -183.98304439 220.50944441 -187.22607422 220.6328125 C-188.17194901 220.67021545 -189.11782379 220.70761841 -190.09236145 220.74615479 C-196.06454713 220.97018088 -202.02378966 221.04265233 -208 221 C-204.79798054 206.50533293 -188.99580104 191.79355573 -179.42089844 180.65917969 C-177.9926283 178.99139209 -176.57709731 177.31351897 -175.1640625 175.6328125 C-167.98441167 167.12440495 -160.45126288 158.99544244 -152.79882812 150.91210938 C-150.08738565 148.02991373 -147.42054749 145.10752073 -144.75 142.1875 C-140.1959935 137.2189397 -135.49300532 132.43581449 -130.66796875 127.73046875 C-128.7004245 125.71683269 -126.88642387 123.71309208 -125.06933594 121.57373047 C-120.0520867 115.82147202 -114.62250525 110.47830557 -109.22265625 105.08984375 C-108.08582754 103.95233967 -106.94914717 102.81468733 -105.81260681 101.67689514 C-103.44155079 99.30437314 -101.06871727 96.93364759 -98.69458008 94.56420898 C-95.67101539 91.54634088 -92.65196367 88.52400424 -89.63424015 85.50029659 C-87.29130167 83.15372268 -84.9459596 80.80956265 -82.59991264 78.46609688 C-81.48655516 77.35340043 -80.37392319 76.2399775 -79.26207161 75.12577629 C-73.87203555 69.72684794 -68.46670899 64.40759209 -62.66624451 59.44386292 C-60.37822799 57.4612114 -58.2485538 55.34411952 -56.125 53.1875 C-55.28453125 52.33929687 -54.4440625 51.49109375 -53.578125 50.6171875 C-52.72734375 49.75351563 -51.8765625 48.88984375 -51 48 C-45.74761956 42.66803803 -40.4878317 37.45492799 -34.8046875 32.58203125 C-32.06910854 30.18395878 -29.53803076 27.60360627 -27 25 C-23.06870939 21.01427138 -19.06699876 17.21229087 -14.80078125 13.58203125 C-12.30287623 11.38755937 -10.00426882 9.01584158 -7.67578125 6.64453125 C-5.244864 4.25894579 -2.65231288 2.13478841 0 0 Z " fill="#E573E9" transform="translate(1666,1757)"/>
</svg>
